<svg width="282" height="132" viewBox="0 0 282 132" fill="none" xmlns="http://www.w3.org/2000/svg">
<mask id="path-1-outside-1_213_161" maskUnits="userSpaceOnUse" x="-8" y="-8" width="298" height="148" fill="black">
<rect fill="white" x="-8" y="-8" width="298" height="148"/>
<path d="M18.75 131.25V112.5H0V37.5H18.75V18.75H37.5V0H112.5V18.75H56.25V37.5H37.5V56.25H112.5V75H131.25V112.5H112.5V131.25H18.75ZM37.5 112.5H93.75V75H37.5V112.5Z"/>
<path d="M168.75 131.25V112.5H225V93.75H243.75V75H168.75V56.25H150V18.75H168.75V0H262.5V18.75H281.25V93.75H262.5V112.5H243.75V131.25H168.75ZM187.5 56.25H243.75V18.75H187.5V56.25Z"/>
</mask>
<path d="M18.75 131.25V112.5H0V37.5H18.75V18.75H37.5V0H112.5V18.75H56.25V37.5H37.5V56.25H112.5V75H131.25V112.5H112.5V131.25H18.75ZM37.5 112.5H93.75V75H37.5V112.5Z" fill="#202020"/>
<path d="M168.75 131.25V112.5H225V93.75H243.75V75H168.75V56.25H150V18.75H168.75V0H262.5V18.75H281.25V93.75H262.5V112.5H243.75V131.25H168.75ZM187.5 56.25H243.75V18.75H187.5V56.25Z" fill="#82DF85"/>
<path d="M18.75 131.25H10.75V139.25H18.75V131.25ZM18.75 112.5H26.75V104.5H18.75V112.5ZM0 112.5H-8V120.5H0V112.5ZM0 37.5V29.5H-8V37.5H0ZM18.75 37.5V45.5H26.75V37.5H18.75ZM18.75 18.75V10.75H10.75V18.75H18.75ZM37.5 18.75V26.75H45.5V18.75H37.5ZM37.5 0V-8H29.5V0H37.5ZM112.5 0H120.5V-8H112.5V0ZM112.5 18.75V26.75H120.5V18.75H112.5ZM56.25 18.75V10.75H48.25V18.75H56.25ZM56.25 37.5V45.5H64.25V37.5H56.25ZM37.5 37.5V29.5H29.5V37.5H37.5ZM37.5 56.25H29.5V64.25H37.5V56.25ZM112.5 56.25H120.5V48.25H112.5V56.25ZM112.5 75H104.5V83H112.5V75ZM131.25 75H139.25V67H131.25V75ZM131.25 112.5V120.5H139.25V112.5H131.25ZM112.5 112.5V104.5H104.5V112.5H112.5ZM112.5 131.25V139.25H120.5V131.25H112.5ZM37.5 112.5H29.5V120.5H37.5V112.5ZM93.75 112.5V120.5H101.75V112.5H93.75ZM93.75 75H101.75V67H93.75V75ZM37.5 75V67H29.5V75H37.5ZM26.75 131.25V112.5H10.75V131.25H26.75ZM18.75 104.5H0V120.5H18.75V104.5ZM8 112.5V37.5H-8V112.5H8ZM0 45.5H18.75V29.5H0V45.5ZM26.75 37.5V18.75H10.75V37.5H26.75ZM18.75 26.75H37.5V10.75H18.75V26.75ZM45.5 18.75V0H29.5V18.75H45.5ZM37.5 8H112.5V-8H37.5V8ZM104.5 0V18.75H120.5V0H104.5ZM112.5 10.75H56.25V26.75H112.5V10.75ZM48.25 18.75V37.5H64.25V18.75H48.25ZM56.25 29.5H37.5V45.5H56.25V29.5ZM29.5 37.5V56.25H45.5V37.5H29.5ZM37.5 64.25H112.5V48.25H37.5V64.25ZM104.5 56.25V75H120.5V56.25H104.5ZM112.5 83H131.25V67H112.5V83ZM123.25 75V112.5H139.25V75H123.25ZM131.25 104.5H112.5V120.5H131.25V104.5ZM104.5 112.5V131.25H120.5V112.5H104.5ZM112.5 123.25H18.75V139.25H112.5V123.25ZM37.5 120.5H93.75V104.5H37.5V120.5ZM101.75 112.5V75H85.75V112.5H101.75ZM93.75 67H37.5V83H93.75V67ZM29.5 75V112.5H45.5V75H29.5ZM168.75 131.25H160.75V139.25H168.75V131.25ZM168.75 112.5V104.5H160.75V112.5H168.75ZM225 112.5V120.5H233V112.5H225ZM225 93.75V85.75H217V93.75H225ZM243.75 93.75V101.75H251.75V93.75H243.75ZM243.75 75H251.75V67H243.75V75ZM168.75 75H160.75V83H168.75V75ZM168.75 56.25H176.75V48.25H168.75V56.25ZM150 56.25H142V64.25H150V56.25ZM150 18.75V10.75H142V18.75H150ZM168.75 18.75V26.75H176.75V18.75H168.75ZM168.75 0V-8H160.75V0H168.75ZM262.5 0H270.5V-8H262.5V0ZM262.5 18.75H254.5V26.75H262.5V18.75ZM281.25 18.75H289.25V10.75H281.25V18.75ZM281.25 93.75V101.75H289.25V93.75H281.25ZM262.5 93.75V85.75H254.5V93.75H262.5ZM262.5 112.5V120.5H270.5V112.5H262.5ZM243.75 112.5V104.5H235.75V112.5H243.75ZM243.75 131.25V139.25H251.75V131.25H243.75ZM187.5 56.25H179.5V64.25H187.5V56.25ZM243.75 56.25V64.25H251.75V56.25H243.75ZM243.75 18.75H251.75V10.75H243.75V18.75ZM187.5 18.75V10.75H179.5V18.75H187.5ZM176.75 131.25V112.5H160.75V131.25H176.75ZM168.75 120.5H225V104.5H168.75V120.5ZM233 112.5V93.75H217V112.5H233ZM225 101.75H243.75V85.75H225V101.75ZM251.75 93.75V75H235.75V93.75H251.75ZM243.75 67H168.75V83H243.75V67ZM176.75 75V56.25H160.75V75H176.75ZM168.75 48.25H150V64.25H168.75V48.25ZM158 56.25V18.75H142V56.25H158ZM150 26.75H168.75V10.75H150V26.75ZM176.75 18.75V0H160.75V18.75H176.75ZM168.75 8H262.5V-8H168.75V8ZM254.5 0V18.75H270.5V0H254.5ZM262.5 26.75H281.25V10.75H262.5V26.75ZM273.25 18.75V93.75H289.25V18.75H273.25ZM281.25 85.75H262.5V101.75H281.25V85.75ZM254.5 93.75V112.5H270.5V93.75H254.5ZM262.5 104.5H243.75V120.5H262.5V104.5ZM235.75 112.5V131.25H251.75V112.5H235.75ZM243.75 123.25H168.75V139.25H243.75V123.25ZM187.5 64.25H243.75V48.25H187.5V64.25ZM251.75 56.25V18.75H235.75V56.25H251.75ZM243.75 10.75H187.5V26.75H243.75V10.75ZM179.5 18.75V56.25H195.5V18.75H179.5Z" fill="#82DF85" mask="url(#path-1-outside-1_213_161)"/>
</svg>
