<svg width="40" height="40" viewBox="0 0 40 40" fill="none" xmlns="http://www.w3.org/2000/svg">
<path d="M19.9251 3.175C19.8907 3.18125 19.8564 3.19063 19.8251 3.2C19.4532 3.28438 19.1907 3.61875 19.2001 4V8.8C19.197 9.0875 19.347 9.35625 19.597 9.50313C19.847 9.64688 20.1532 9.64688 20.4032 9.50313C20.6532 9.35625 20.8032 9.0875 20.8001 8.8V4C20.8095 3.76875 20.7157 3.54688 20.5501 3.39063C20.3814 3.23125 20.1532 3.15313 19.9251 3.175ZM8.52512 7.875C8.22512 7.92812 7.98449 8.14688 7.90012 8.4375C7.81574 8.73125 7.90324 9.04375 8.12512 9.25L11.5251 12.65C11.7189 12.8875 12.0282 12.9969 12.3282 12.9281C12.6251 12.8594 12.8595 12.625 12.9282 12.3281C12.997 12.0281 12.8876 11.7188 12.6501 11.525L9.25012 8.125C9.08449 7.94688 8.84387 7.85625 8.60012 7.875C8.57512 7.875 8.55012 7.875 8.52512 7.875ZM31.2251 7.875C31.0439 7.9 30.8751 7.99062 30.7501 8.125L27.3501 11.525C27.1126 11.7188 27.0032 12.0281 27.072 12.3281C27.1407 12.625 27.3751 12.8594 27.672 12.9281C27.972 12.9969 28.2814 12.8875 28.4751 12.65L31.8751 9.25C32.1251 9.0125 32.197 8.64062 32.0501 8.32812C31.9001 8.0125 31.5689 7.83125 31.2251 7.875ZM19.9251 12C19.9001 12.0063 19.8751 12.0156 19.8501 12.025C19.8001 12.0281 19.7501 12.0375 19.7001 12.05C19.6907 12.0594 19.6845 12.0656 19.6751 12.075C15.4314 12.2563 12.0001 15.7125 12.0001 20C12.0001 24.4031 15.597 28 20.0001 28C24.4032 28 28.0001 24.4031 28.0001 20C28.0001 15.7281 24.597 12.2844 20.3751 12.075C20.347 12.075 20.3282 12.05 20.3001 12.05C20.2189 12.0188 20.1345 12.0031 20.0501 12C20.0345 12 20.0157 12 20.0001 12C19.9751 12 19.9501 12 19.9251 12ZM19.9501 13.6C19.9657 13.6 19.9845 13.6 20.0001 13.6C20.0251 13.6 20.0501 13.6 20.0751 13.6C23.5751 13.6406 26.4001 16.4906 26.4001 20C26.4001 23.5375 23.5376 26.4 20.0001 26.4C16.4657 26.4 13.6001 23.5375 13.6001 20C13.6001 16.4812 16.4376 13.6281 19.9501 13.6ZM3.77512 19.2C3.33449 19.2625 3.02512 19.6719 3.08762 20.1125C3.15012 20.5531 3.55949 20.8625 4.00012 20.8H8.80012C9.08762 20.8031 9.35637 20.6531 9.50324 20.4031C9.64699 20.1531 9.64699 19.8469 9.50324 19.5969C9.35637 19.3469 9.08762 19.1969 8.80012 19.2H4.00012C3.97512 19.2 3.95012 19.2 3.92512 19.2C3.90012 19.2 3.87512 19.2 3.85012 19.2C3.82512 19.2 3.80012 19.2 3.77512 19.2ZM30.9751 19.2C30.5345 19.2625 30.2251 19.6719 30.2876 20.1125C30.3501 20.5531 30.7595 20.8625 31.2001 20.8H36.0001C36.2876 20.8031 36.5564 20.6531 36.7032 20.4031C36.847 20.1531 36.847 19.8469 36.7032 19.5969C36.5564 19.3469 36.2876 19.1969 36.0001 19.2H31.2001C31.1751 19.2 31.1501 19.2 31.1251 19.2C31.1001 19.2 31.0751 19.2 31.0501 19.2C31.0251 19.2 31.0001 19.2 30.9751 19.2ZM12.0001 27.1C11.8189 27.125 11.6501 27.2156 11.5251 27.35L8.12512 30.75C7.88762 30.9437 7.77824 31.2531 7.84699 31.5531C7.91574 31.85 8.15012 32.0844 8.44699 32.1531C8.74699 32.2219 9.05637 32.1125 9.25012 31.875L12.6501 28.475C12.8876 28.2469 12.9595 27.8937 12.8314 27.5906C12.7064 27.2875 12.4032 27.0937 12.0751 27.1C12.0501 27.1 12.0251 27.1 12.0001 27.1ZM27.7501 27.1C27.4501 27.1531 27.2095 27.3719 27.1251 27.6625C27.0407 27.9562 27.1282 28.2687 27.3501 28.475L30.7501 31.875C30.9439 32.1125 31.2532 32.2219 31.5532 32.1531C31.8501 32.0844 32.0845 31.85 32.1532 31.5531C32.222 31.2531 32.1126 30.9437 31.8751 30.75L28.4751 27.35C28.3251 27.1906 28.1189 27.1031 27.9001 27.1C27.8751 27.1 27.8501 27.1 27.8251 27.1C27.8001 27.1 27.7751 27.1 27.7501 27.1ZM19.9251 30.375C19.8907 30.3812 19.8564 30.3906 19.8251 30.4C19.4532 30.4844 19.1907 30.8187 19.2001 31.2V36C19.197 36.2875 19.347 36.5562 19.597 36.7031C19.847 36.8469 20.1532 36.8469 20.4032 36.7031C20.6532 36.5562 20.8032 36.2875 20.8001 36V31.2C20.8095 30.9687 20.7157 30.7469 20.5501 30.5906C20.3814 30.4312 20.1532 30.3531 19.9251 30.375Z" fill="#64748B"/>
</svg>
